<svg width="59" height="61" viewBox="0 0 59 61" fill="none" xmlns="http://www.w3.org/2000/svg">
<path d="M29.3193 34.9082C35.9755 34.9082 42.4476 36.7006 47.5439 39.9375C53.2732 43.5796 56.8978 48.752 58.0596 54.8975C58.3062 56.1981 57.9713 57.4663 57.1631 58.3877L57.1621 58.3887C56.7954 58.8077 56.3335 59.1449 55.8096 59.375C55.2854 59.6051 54.7126 59.7218 54.1338 59.7148H4.50488C3.92617 59.722 3.35333 59.6059 2.8291 59.376C2.30508 59.1461 1.8434 58.8086 1.47656 58.3896V58.3887L1.33008 58.2119C0.628295 57.3087 0.347975 56.1187 0.579102 54.8994C1.74089 48.7539 5.3654 43.581 11.0947 39.9375C16.191 36.6993 22.663 34.9082 29.3193 34.9082ZM29.3193 0.5C33.4237 0.5 37.1221 2.00807 39.7637 4.72754C42.436 7.47897 43.7429 11.1844 43.4336 15.1738C42.8145 23.172 36.4478 29.6074 29.3193 29.6074C22.1905 29.6074 15.8136 23.1703 15.2041 15.1719C14.8985 11.1419 16.1989 7.42941 18.8525 4.70117C21.4801 2.00029 25.1904 0.50001 29.3193 0.5Z" fill="#2E7D32" stroke="#2E7D32"/>
</svg>
